<svg width="24" height="24" viewBox="0 0 24 24" fill="none" xmlns="http://www.w3.org/2000/svg">
<mask id="mask0_329_299" style="mask-type:alpha" maskUnits="userSpaceOnUse" x="0" y="0" width="24" height="24">
<rect width="24" height="24" fill="#D9D9D9"/>
</mask>
<g mask="url(#mask0_329_299)">
<path d="M10.7249 15.6L16.6749 9.67502L15.3999 8.40002L10.7249 13.05L8.5999 10.95L7.3249 12.225L10.7249 15.6ZM11.9999 21.6C10.6832 21.6 9.44157 21.35 8.2749 20.85C7.10824 20.35 6.0874 19.6625 5.2124 18.7875C4.3374 17.9125 3.6499 16.8917 3.1499 15.725C2.6499 14.5584 2.3999 13.3167 2.3999 12C2.3999 10.6667 2.6499 9.42086 3.1499 8.26253C3.6499 7.10419 4.3374 6.08752 5.2124 5.21252C6.0874 4.33752 7.10824 3.65002 8.2749 3.15002C9.44157 2.65002 10.6832 2.40002 11.9999 2.40002C13.3332 2.40002 14.5791 2.65002 15.7374 3.15002C16.8957 3.65002 17.9124 4.33752 18.7874 5.21252C19.6624 6.08752 20.3499 7.10419 20.8499 8.26253C21.3499 9.42086 21.5999 10.6667 21.5999 12C21.5999 13.3167 21.3499 14.5584 20.8499 15.725C20.3499 16.8917 19.6624 17.9125 18.7874 18.7875C17.9124 19.6625 16.8957 20.35 15.7374 20.85C14.5791 21.35 13.3332 21.6 11.9999 21.6ZM11.9999 19.8C14.1666 19.8 16.0082 19.0417 17.5249 17.525C19.0416 16.0084 19.7999 14.1667 19.7999 12C19.7999 9.83336 19.0416 7.99169 17.5249 6.47502C16.0082 4.95836 14.1666 4.20002 11.9999 4.20002C9.83324 4.20002 7.99157 4.95836 6.4749 6.47502C4.95824 7.99169 4.1999 9.83336 4.1999 12C4.1999 14.1667 4.95824 16.0084 6.4749 17.525C7.99157 19.0417 9.83324 19.8 11.9999 19.8Z" fill="white"/>
</g>
</svg>
