<svg width="24" height="24" viewBox="0 0 24 24" fill="none" xmlns="http://www.w3.org/2000/svg">
<path d="M14 16C13.45 16 12.9792 15.8042 12.5875 15.4125C12.1958 15.0208 12 14.55 12 14C12 13.45 12.1958 12.9792 12.5875 12.5875C12.9792 12.1958 13.45 12 14 12C14.55 12 15.0208 12.1958 15.4125 12.5875C15.8042 12.9792 16 13.45 16 14C16 14.55 15.8042 15.0208 15.4125 15.4125C15.0208 15.8042 14.55 16 14 16ZM14 10C13.45 10 12.9792 9.80417 12.5875 9.4125C12.1958 9.02083 12 8.55 12 8C12 7.45 12.1958 6.97917 12.5875 6.5875C12.9792 6.19583 13.45 6 14 6C14.55 6 15.0208 6.19583 15.4125 6.5875C15.8042 6.97917 16 7.45 16 8C16 8.55 15.8042 9.02083 15.4125 9.4125C15.0208 9.80417 14.55 10 14 10ZM14 4C13.45 4 12.9792 3.80417 12.5875 3.4125C12.1958 3.02083 12 2.55 12 2C12 1.45 12.1958 0.979167 12.5875 0.5875C12.9792 0.195833 13.45 0 14 0C14.55 0 15.0208 0.195833 15.4125 0.5875C15.8042 0.979167 16 1.45 16 2C16 2.55 15.8042 3.02083 15.4125 3.4125C15.0208 3.80417 14.55 4 14 4Z" fill="white"/>
</svg>
