<svg width="103" height="34" viewBox="0 0 103 34" fill="none" xmlns="http://www.w3.org/2000/svg">
<path d="M7.848 23.192C5.72 23.192 4.016 22.792 2.736 21.992C1.456 21.176 0.816 19.936 0.816 18.272C0.816 17.392 0.968 16.72 1.272 16.256C1.576 15.792 2.024 15.56 2.616 15.56C3.048 15.56 3.4 15.672 3.672 15.896C3.944 16.12 4.08 16.408 4.08 16.76C4.08 17.08 4.056 17.36 4.008 17.6C4.008 17.664 3.992 17.776 3.96 17.936C3.944 18.096 3.936 18.264 3.936 18.44C3.936 19.16 4.296 19.696 5.016 20.048C5.752 20.4 6.776 20.576 8.088 20.576C9.448 20.576 10.512 20.336 11.28 19.856C12.048 19.36 12.432 18.672 12.432 17.792C12.432 17.248 12.256 16.784 11.904 16.4C11.552 16 11.112 15.672 10.584 15.416C10.056 15.144 9.312 14.816 8.352 14.432C7.12 13.952 6.112 13.496 5.328 13.064C4.56 12.632 3.896 12.048 3.336 11.312C2.792 10.56 2.52 9.632 2.52 8.528C2.52 7.376 2.824 6.352 3.432 5.456C4.056 4.56 4.944 3.864 6.096 3.368C7.264 2.872 8.632 2.624 10.2 2.624C11.368 2.624 12.44 2.8 13.416 3.152C14.392 3.488 15.168 4.008 15.744 4.712C16.336 5.416 16.632 6.28 16.632 7.304C16.632 8.312 16.48 9.072 16.176 9.584C15.872 10.096 15.424 10.352 14.832 10.352C14.416 10.352 14.064 10.224 13.776 9.968C13.504 9.712 13.368 9.408 13.368 9.056C13.368 8.752 13.392 8.472 13.44 8.216C13.488 7.736 13.512 7.432 13.512 7.304C13.512 6.632 13.184 6.12 12.528 5.768C11.872 5.416 11.056 5.24 10.08 5.24C8.704 5.24 7.648 5.496 6.912 6.008C6.192 6.504 5.832 7.208 5.832 8.12C5.832 8.728 6.016 9.248 6.384 9.68C6.768 10.112 7.24 10.472 7.8 10.76C8.36 11.048 9.144 11.392 10.152 11.792C11.368 12.288 12.344 12.736 13.08 13.136C13.816 13.536 14.44 14.08 14.952 14.768C15.48 15.456 15.744 16.304 15.744 17.312C15.744 19.2 15.024 20.656 13.584 21.68C12.16 22.688 10.248 23.192 7.848 23.192ZM22.3766 23.12C20.8086 23.12 19.5846 22.68 18.7046 21.8C17.8406 20.904 17.4086 19.728 17.4086 18.272C17.4086 16.976 17.6646 15.84 18.1766 14.864C18.6886 13.888 19.3526 13.136 20.1686 12.608C20.9846 12.08 21.8406 11.816 22.7366 11.816C23.6166 11.816 24.2966 12.08 24.7766 12.608C25.2726 13.12 25.5206 13.784 25.5206 14.6C25.5206 15.272 25.3686 15.84 25.0646 16.304C24.7766 16.768 24.3926 17 23.9126 17C23.6086 17 23.3606 16.928 23.1686 16.784C22.9926 16.64 22.9046 16.44 22.9046 16.184C22.9046 16.072 22.9206 15.944 22.9526 15.8C22.9846 15.656 23.0086 15.552 23.0246 15.488C23.1046 15.248 23.1446 15.024 23.1446 14.816C23.1446 14.608 23.0886 14.448 22.9766 14.336C22.8806 14.224 22.7366 14.168 22.5446 14.168C22.1766 14.168 21.8326 14.336 21.5126 14.672C21.1926 14.992 20.9366 15.432 20.7446 15.992C20.5526 16.552 20.4566 17.168 20.4566 17.84C20.4566 19.696 21.2646 20.624 22.8806 20.624C23.5366 20.624 24.2406 20.408 24.9926 19.976C25.7606 19.528 26.5126 18.864 27.2486 17.984C27.4406 17.76 27.6566 17.648 27.8966 17.648C28.1046 17.648 28.2646 17.744 28.3766 17.936C28.5046 18.128 28.5686 18.392 28.5686 18.728C28.5686 19.336 28.4166 19.832 28.1126 20.216C27.3606 21.144 26.4566 21.864 25.4006 22.376C24.3606 22.872 23.3526 23.12 22.3766 23.12ZM39.9486 17.648C40.1566 17.648 40.3166 17.744 40.4286 17.936C40.5566 18.128 40.6206 18.392 40.6206 18.728C40.6206 19.368 40.4686 19.864 40.1646 20.216C39.4286 21.064 38.6686 21.76 37.8846 22.304C37.1166 22.848 36.2366 23.12 35.2446 23.12C34.4286 23.12 33.8126 22.888 33.3966 22.424C32.9806 21.944 32.7726 21.256 32.7726 20.36C32.7726 19.912 32.8846 19.112 33.1086 17.96C33.3166 16.952 33.4206 16.256 33.4206 15.872C33.4206 15.616 33.3326 15.488 33.1566 15.488C32.9486 15.488 32.6526 15.76 32.2686 16.304C31.8846 16.832 31.5006 17.536 31.1166 18.416C30.7326 19.296 30.4206 20.224 30.1806 21.2C29.8766 22.48 29.1246 23.12 27.9246 23.12C27.4446 23.12 27.1246 22.952 26.9646 22.616C26.8206 22.264 26.7486 21.64 26.7486 20.744C26.7486 20.232 26.7566 19.824 26.7726 19.52L26.7966 17.6C26.7966 15.136 27.0446 12.568 27.5406 9.896C28.0526 7.224 28.7966 4.984 29.7726 3.176C30.7646 1.352 31.9486 0.439999 33.3246 0.439999C34.0606 0.439999 34.6526 0.759999 35.1006 1.4C35.5646 2.024 35.7966 2.84 35.7966 3.848C35.7966 5.464 35.3246 7.144 34.3806 8.888C33.4366 10.616 31.9006 12.64 29.7726 14.96C29.7246 15.792 29.7006 16.648 29.7006 17.528C30.2286 16.168 30.8126 15.064 31.4526 14.216C32.1086 13.352 32.7486 12.736 33.3726 12.368C34.0126 12 34.5966 11.816 35.1246 11.816C36.1646 11.816 36.6846 12.336 36.6846 13.376C36.6846 14 36.5086 15.128 36.1566 16.76C35.8526 18.152 35.7006 19.072 35.7006 19.52C35.7006 20.16 35.9326 20.48 36.3966 20.48C36.7166 20.48 37.0926 20.288 37.5246 19.904C37.9726 19.504 38.5646 18.864 39.3006 17.984C39.4926 17.76 39.7086 17.648 39.9486 17.648ZM32.8206 2.816C32.5326 2.816 32.2126 3.232 31.8606 4.064C31.5086 4.88 31.1646 5.992 30.8286 7.4C30.5086 8.792 30.2446 10.312 30.0366 11.96C31.0286 10.792 31.8446 9.52 32.4846 8.144C33.1406 6.768 33.4686 5.52 33.4686 4.4C33.4686 3.888 33.4126 3.496 33.3006 3.224C33.1886 2.952 33.0286 2.816 32.8206 2.816ZM49.3794 17.648C49.5874 17.648 49.7474 17.744 49.8594 17.936C49.9874 18.128 50.0514 18.392 50.0514 18.728C50.0514 19.368 49.8994 19.864 49.5954 20.216C49.0034 20.936 48.1634 21.6 47.0754 22.208C46.0034 22.816 44.8514 23.12 43.6194 23.12C41.9394 23.12 40.6354 22.664 39.7074 21.752C38.7794 20.84 38.3154 19.592 38.3154 18.008C38.3154 16.904 38.5474 15.88 39.0114 14.936C39.4754 13.976 40.1154 13.216 40.9314 12.656C41.7634 12.096 42.6994 11.816 43.7394 11.816C44.6674 11.816 45.4114 12.096 45.9714 12.656C46.5314 13.2 46.8114 13.944 46.8114 14.888C46.8114 15.992 46.4114 16.944 45.6114 17.744C44.8274 18.528 43.4914 19.152 41.6034 19.616C42.0034 20.352 42.7634 20.72 43.8834 20.72C44.6034 20.72 45.4194 20.472 46.3314 19.976C47.2594 19.464 48.0594 18.8 48.7314 17.984C48.9234 17.76 49.1394 17.648 49.3794 17.648ZM43.3314 14.168C42.7394 14.168 42.2354 14.512 41.8194 15.2C41.4194 15.888 41.2194 16.72 41.2194 17.696V17.744C42.1634 17.52 42.9074 17.184 43.4514 16.736C43.9954 16.288 44.2674 15.768 44.2674 15.176C44.2674 14.872 44.1794 14.632 44.0034 14.456C43.8434 14.264 43.6194 14.168 43.3314 14.168ZM61.6121 17.648C61.8201 17.648 61.9801 17.744 62.0921 17.936C62.2201 18.128 62.2841 18.392 62.2841 18.728C62.2841 19.368 62.1321 19.864 61.8281 20.216C61.1721 21.016 60.4521 21.704 59.6681 22.28C58.8841 22.84 58.1081 23.12 57.3401 23.12C56.1241 23.12 55.1961 22.408 54.5561 20.984C53.8841 21.832 53.2921 22.4 52.7801 22.688C52.2841 22.976 51.7001 23.12 51.0281 23.12C50.0521 23.12 49.2441 22.76 48.6041 22.04C47.9801 21.304 47.6681 20.352 47.6681 19.184C47.6681 17.904 47.9401 16.72 48.4841 15.632C49.0281 14.528 49.7721 13.632 50.7161 12.944C51.6761 12.24 52.7481 11.824 53.9321 11.696C54.2361 8.592 54.8121 5.944 55.6601 3.752C56.5241 1.544 57.6521 0.439999 59.0441 0.439999C59.7321 0.439999 60.3001 0.751999 60.7481 1.376C61.2121 2 61.4441 2.944 61.4441 4.208C61.4441 6 61.0041 8.096 60.1241 10.496C59.2441 12.896 58.0681 15.36 56.5961 17.888C56.6601 18.816 56.7961 19.48 57.0041 19.88C57.2281 20.28 57.5081 20.48 57.8441 20.48C58.2761 20.48 58.7161 20.288 59.1641 19.904C59.6121 19.52 60.2121 18.88 60.9641 17.984C61.1561 17.76 61.3721 17.648 61.6121 17.648ZM58.7801 2.792C58.4761 2.792 58.1721 3.336 57.8681 4.424C57.5641 5.496 57.3001 6.904 57.0761 8.648C56.8681 10.392 56.7161 12.216 56.6201 14.12C58.4121 10.216 59.3081 7.08 59.3081 4.712C59.3081 4.104 59.2521 3.632 59.1401 3.296C59.0441 2.96 58.9241 2.792 58.7801 2.792ZM51.8681 20.696C52.1721 20.696 52.4761 20.576 52.7801 20.336C53.0841 20.08 53.4681 19.616 53.9321 18.944C53.7721 18.08 53.6921 17.112 53.6921 16.04C53.6921 15.656 53.7081 15.032 53.7401 14.168C52.8601 14.44 52.1241 15.032 51.5321 15.944C50.9561 16.84 50.6681 17.84 50.6681 18.944C50.6681 20.112 51.0681 20.696 51.8681 20.696ZM62.7797 23.12C62.0597 23.12 61.4677 22.792 61.0037 22.136C60.5557 21.464 60.3317 20.632 60.3317 19.64C60.3317 18.44 60.4117 17.344 60.5717 16.352C60.7317 15.344 60.9957 14.28 61.3637 13.16C61.5237 12.68 61.7477 12.336 62.0357 12.128C62.3237 11.92 62.7797 11.816 63.4037 11.816C63.7557 11.816 63.9957 11.872 64.1237 11.984C64.2677 12.096 64.3397 12.264 64.3397 12.488C64.3397 12.616 64.2517 13.048 64.0757 13.784C63.9157 14.376 63.7877 14.912 63.6917 15.392C63.3717 17.072 63.2117 18.192 63.2117 18.752C63.2117 19.088 63.2517 19.328 63.3317 19.472C63.4117 19.6 63.5397 19.664 63.7157 19.664C63.9557 19.664 64.2517 19.424 64.6037 18.944C64.9717 18.464 65.3557 17.736 65.7557 16.76C66.1717 15.784 66.5717 14.584 66.9557 13.16C67.0837 12.68 67.2757 12.336 67.5317 12.128C67.8037 11.92 68.2037 11.816 68.7317 11.816C69.0997 11.816 69.3557 11.864 69.4997 11.96C69.6437 12.04 69.7157 12.2 69.7157 12.44C69.7157 12.84 69.5157 13.936 69.1157 15.728C68.6677 17.776 68.4437 19.04 68.4437 19.52C68.4437 19.824 68.5077 20.064 68.6357 20.24C68.7637 20.4 68.9317 20.48 69.1397 20.48C69.4597 20.48 69.8357 20.288 70.2677 19.904C70.7157 19.504 71.3077 18.864 72.0437 17.984C72.2357 17.76 72.4517 17.648 72.6917 17.648C72.8997 17.648 73.0597 17.744 73.1717 17.936C73.2997 18.128 73.3637 18.392 73.3637 18.728C73.3637 19.368 73.2117 19.864 72.9077 20.216C72.2197 21.064 71.4757 21.76 70.6757 22.304C69.8917 22.848 68.9957 23.12 67.9877 23.12C67.2197 23.12 66.6517 22.824 66.2837 22.232C65.9317 21.64 65.7557 20.808 65.7557 19.736C65.4837 20.824 65.0757 21.664 64.5317 22.256C63.9877 22.832 63.4037 23.12 62.7797 23.12ZM80.5136 17.648C80.7216 17.648 80.8816 17.744 80.9936 17.936C81.1216 18.128 81.1856 18.392 81.1856 18.728C81.1856 19.368 81.0336 19.864 80.7296 20.216C80.0416 21.064 79.2896 21.76 78.4736 22.304C77.6736 22.848 76.7616 23.12 75.7376 23.12C74.3296 23.12 73.2816 22.48 72.5936 21.2C71.9216 19.92 71.5856 18.264 71.5856 16.232C71.5856 14.28 71.8336 12.056 72.3296 9.56C72.8416 7.064 73.5856 4.92 74.5616 3.128C75.5536 1.336 76.7296 0.439999 78.0896 0.439999C78.8576 0.439999 79.4576 0.799999 79.8896 1.52C80.3376 2.224 80.5616 3.24 80.5616 4.568C80.5616 6.472 80.0336 8.68 78.9776 11.192C77.9216 13.704 76.4896 16.192 74.6816 18.656C74.7936 19.312 74.9776 19.784 75.2336 20.072C75.4896 20.344 75.8256 20.48 76.2416 20.48C76.8976 20.48 77.4736 20.296 77.9696 19.928C78.4656 19.544 79.0976 18.896 79.8656 17.984C80.0576 17.76 80.2736 17.648 80.5136 17.648ZM77.5616 2.816C77.1936 2.816 76.7776 3.48 76.3136 4.808C75.8496 6.136 75.4416 7.784 75.0896 9.752C74.7376 11.72 74.5456 13.608 74.5136 15.416C75.6496 13.544 76.5536 11.672 77.2256 9.8C77.8976 7.912 78.2336 6.192 78.2336 4.64C78.2336 3.424 78.0096 2.816 77.5616 2.816ZM82.3898 10.232C81.7178 10.232 81.2138 10.08 80.8778 9.776C80.5418 9.456 80.3738 9.016 80.3738 8.456C80.3738 7.896 80.5898 7.432 81.0218 7.064C81.4698 6.68 82.0218 6.488 82.6778 6.488C83.2698 6.488 83.7498 6.632 84.1178 6.92C84.4858 7.208 84.6698 7.616 84.6698 8.144C84.6698 8.784 84.4618 9.296 84.0458 9.68C83.6298 10.048 83.0778 10.232 82.3898 10.232ZM82.1978 23.12C81.1578 23.12 80.3978 22.752 79.9178 22.016C79.4538 21.28 79.2218 20.304 79.2218 19.088C79.2218 18.368 79.3098 17.448 79.4858 16.328C79.6778 15.192 79.9178 14.136 80.2058 13.16C80.3498 12.648 80.5418 12.296 80.7818 12.104C81.0218 11.912 81.4058 11.816 81.9338 11.816C82.7498 11.816 83.1578 12.088 83.1578 12.632C83.1578 13.032 83.0058 13.96 82.7018 15.416C82.3178 17.176 82.1258 18.368 82.1258 18.992C82.1258 19.472 82.1898 19.84 82.3178 20.096C82.4458 20.352 82.6618 20.48 82.9658 20.48C83.2538 20.48 83.6138 20.28 84.0458 19.88C84.4778 19.48 85.0538 18.848 85.7738 17.984C85.9658 17.76 86.1818 17.648 86.4218 17.648C86.6298 17.648 86.7898 17.744 86.9018 17.936C87.0298 18.128 87.0938 18.392 87.0938 18.728C87.0938 19.368 86.9418 19.864 86.6378 20.216C85.0538 22.152 83.5738 23.12 82.1978 23.12ZM94.4936 16.28C94.9416 16.28 95.1656 16.616 95.1656 17.288C95.1656 18.552 94.1736 19.184 92.1896 19.184C91.8056 19.184 91.2536 19.112 90.5336 18.968C90.7416 19.96 90.9096 21.064 91.0376 22.28C91.1816 23.48 91.2536 24.472 91.2536 25.256C91.2536 26.984 90.9736 28.304 90.4136 29.216C89.8536 30.128 89.1176 30.584 88.2056 30.584C87.0536 30.584 86.2296 29.768 85.7336 28.136C85.2536 26.504 85.0136 24.04 85.0136 20.744C85.0136 17.672 85.3416 14.56 85.9976 11.408C86.6696 8.24 87.5816 5.624 88.7336 3.56C89.9016 1.48 91.1816 0.439999 92.5736 0.439999C93.3256 0.439999 93.9096 0.775999 94.3256 1.448C94.7576 2.12 94.9736 3.024 94.9736 4.16C94.9736 7.92 92.7256 12.016 88.2296 16.448C88.0696 18.016 87.9896 19.392 87.9896 20.576C87.9896 22.224 88.0456 23.912 88.1576 25.64C88.2696 27.384 88.4536 28.256 88.7096 28.256C89.1896 28.256 89.4296 27.424 89.4296 25.76C89.4296 24.512 89.3416 23.304 89.1656 22.136C89.0056 20.968 88.7816 19.736 88.4936 18.44C88.4776 18.232 88.5416 17.968 88.6856 17.648C88.8456 17.328 89.0376 17.048 89.2616 16.808C89.4856 16.568 89.6856 16.448 89.8616 16.448C90.1816 16.448 90.5656 16.464 91.0136 16.496C91.1576 16.512 91.3256 16.52 91.5176 16.52C92.1576 16.52 92.8696 16.464 93.6536 16.352C93.7816 16.336 93.9176 16.32 94.0616 16.304C94.2056 16.288 94.3496 16.28 94.4936 16.28ZM92.0696 2.816C91.7816 2.816 91.4216 3.304 90.9896 4.28C90.5736 5.256 90.1576 6.552 89.7416 8.168C89.3256 9.768 88.9656 11.464 88.6616 13.256C89.9416 11.8 90.9256 10.288 91.6136 8.72C92.3016 7.136 92.6536 5.656 92.6696 4.28C92.6696 3.304 92.4696 2.816 92.0696 2.816ZM101.755 11.816C102.123 11.816 102.379 11.864 102.523 11.96C102.667 12.056 102.739 12.216 102.739 12.44C102.739 12.824 102.531 14.192 102.115 16.544C101.747 18.8 101.531 20.136 101.467 20.552C100.875 24.664 100.059 27.92 99.0191 30.32C97.9791 32.72 96.5951 33.92 94.8671 33.92C94.0511 33.92 93.3871 33.664 92.8751 33.152C92.3631 32.656 92.1071 32 92.1071 31.184C92.1071 30.432 92.2751 29.664 92.6111 28.88C92.9631 28.096 93.6031 27.192 94.5311 26.168C95.4751 25.16 96.8031 24 98.5151 22.688L98.5871 22.136C98.6991 21.544 98.8271 20.696 98.9711 19.592C98.6511 20.744 98.2031 21.624 97.6271 22.232C97.0511 22.824 96.4431 23.12 95.8031 23.12C95.0831 23.12 94.4911 22.792 94.0271 22.136C93.5791 21.464 93.3551 20.632 93.3551 19.64C93.3551 18.44 93.4351 17.344 93.5951 16.352C93.7551 15.344 94.0191 14.28 94.3871 13.16C94.5471 12.68 94.7711 12.336 95.0591 12.128C95.3471 11.92 95.8031 11.816 96.4271 11.816C96.7791 11.816 97.0191 11.872 97.1471 11.984C97.2911 12.096 97.3631 12.264 97.3631 12.488C97.3631 12.616 97.2751 13.048 97.0991 13.784C96.9391 14.376 96.8111 14.912 96.7151 15.392C96.5871 16.048 96.4751 16.68 96.3791 17.288C96.2831 17.88 96.2351 18.368 96.2351 18.752C96.2351 19.36 96.4031 19.664 96.7391 19.664C96.9791 19.664 97.2751 19.424 97.6271 18.944C97.9951 18.464 98.3791 17.736 98.7791 16.76C99.1951 15.784 99.5951 14.584 99.9791 13.16C100.107 12.68 100.299 12.336 100.555 12.128C100.827 11.92 101.227 11.816 101.755 11.816ZM95.1311 31.592C95.5311 31.592 95.9791 31.128 96.4751 30.2C96.9711 29.272 97.4671 27.728 97.9631 25.568C96.7311 26.608 95.8351 27.552 95.2751 28.4C94.7311 29.264 94.4591 30.016 94.4591 30.656C94.4591 30.928 94.5071 31.152 94.6031 31.328C94.7151 31.504 94.8911 31.592 95.1311 31.592Z" fill="white"/>
</svg>
